<?xml version="1.0" encoding="UTF-8" standalone="no"?>
<svg width="93px" height="46px" viewBox="0 0 93 46" version="1.1" xmlns="http://www.w3.org/2000/svg" xmlns:xlink="http://www.w3.org/1999/xlink">
    <!-- Generator: Sketch 49.3 (51167) - http://www.bohemiancoding.com/sketch -->
    <title>Logo</title>
    <desc>Created with Sketch.</desc>
    <defs>
        <polygon id="path-1" points="0 46 91.7816948 46 91.7816948 0.834133333 0 0.834133333"></polygon>
        <polygon id="path-3" points="0 1.36322995e-05 9.3513169 1.36322995e-05 9.3513169 14.0244352 0 14.0244352"></polygon>
        <polygon id="path-5" points="0 4.08177344e-05 9.33195946 4.08177344e-05 9.33195946 14.1496171 0 14.1496171"></polygon>
    </defs>
    <g id="Symbols" stroke="none" stroke-width="1" fill="none" fill-rule="evenodd">
        <g id="Header" transform="translate(-63.000000, -12.000000)">
            <g id="Logo" transform="translate(59.000000, 12.000000)">
                <g id="Page-1" transform="translate(4.697674, 0.000000)">
                    <polygon id="Fill-1" fill="#222222" points="8.39336931 1.17948718 8.39336931 14.767131 3.17490149 1.17948718 0 1.17948718 0 23.5897436 3.35081674 23.5897436 3.35081674 9.94606409 8.60509963 23.5897436 11.744186 23.5897436 11.744186 1.17948718"></polygon>
                    <g id="Group-18">
                        <path d="M25.4420379,5.00929778 C24.9912526,4.39289778 24.4063411,4.08520889 23.6862948,4.08520889 C23.3030769,4.08520889 22.9269183,4.19356444 22.555802,4.41027556 C22.1846857,4.62698667 21.9255094,4.86720889 21.7792815,5.12889778 C21.6330537,5.39160889 21.5372492,5.65943111 21.4928766,5.93338667 C21.4464871,6.20734222 21.4253092,6.43529778 21.4253092,6.61725333 L21.4253092,18.2521867 C21.4253092,18.4811644 21.4414447,18.7316089 21.4757326,19.0055644 C21.5090121,19.2784978 21.6895279,19.6505867 22.0152631,20.1177422 C22.3420068,20.58592 22.8986812,20.8189867 23.6862948,20.8189867 C24.091699,20.8189867 24.457773,20.7228978 24.7835082,20.5276533 C25.1102518,20.3344533 25.3462334,20.1126311 25.4924613,19.8611644 C25.6386892,19.61072 25.7344936,19.3704978 25.7798747,19.1425422 C25.8242473,18.9145867 25.8474421,18.6181422 25.8474421,18.2521867 L25.8474421,6.61725333 C25.8474421,6.16134222 25.8302981,5.84240889 25.7970187,5.65943111 C25.7627307,5.47747556 25.64474,5.26076444 25.4420379,5.00929778 M19.1965946,3.19587556 C19.7139388,2.46498667 20.3664177,1.88947556 21.1550398,1.46729778 C21.9426534,1.04512 22.7635465,0.834542222 23.6187275,0.834542222 C24.4517221,0.834542222 25.2342934,1.00525333 25.9654328,1.34769778 C26.6965722,1.69014222 27.3046785,2.15729778 27.7887433,2.75018667 C28.272808,3.34409778 28.604594,3.94823111 28.7841013,4.56463111 C28.9646171,5.18000889 29.0543708,5.85365333 29.0543708,6.58352 L29.0543708,18.2184533 C29.0543708,18.9033422 28.9928542,19.5023644 28.8688126,20.0144978 C28.7447711,20.5276533 28.4805524,21.1041867 28.0761567,21.7430756 C27.6707525,22.3819644 27.0737393,22.9288533 26.2861257,23.3857867 C25.4985121,23.84272 24.6433311,24.0696533 23.7205827,24.0696533 C22.6626996,24.0696533 21.6895279,23.79672 20.800059,23.2488089 C19.9105901,22.7008978 19.2923991,22.0804089 18.9434691,21.3832533 C18.5945391,20.6881422 18.3867947,20.1289867 18.3192273,19.7068089 C18.25166,19.2856533 18.217372,18.7888533 18.217372,18.2184533 L18.217372,6.58352 C18.217372,5.89863111 18.2899817,5.29449778 18.4372181,4.76907556 C18.583446,4.24569778 18.8365715,3.72027556 19.1965946,3.19587556" id="Fill-2" fill="#D72727"></path>
                        <path d="M43.1539657,10.4813556 C43.3566678,10.2288667 43.4968448,9.94264444 43.5755054,9.62166667 C43.6541659,9.30068889 43.6934961,8.94597778 43.6934961,8.55548889 L43.6934961,6.42415556 C43.6934961,5.71371111 43.5018872,5.14024444 43.1206862,4.70477778 C42.7374683,4.26931111 42.1969294,4.05157778 41.5000779,4.05157778 L39.2037959,4.05157778 L39.2037959,11.2030444 L41.46579,11.2030444 C42.1404552,11.2030444 42.7031804,10.9628222 43.1539657,10.4813556 Z M35.9968672,23.8990444 L35.9968672,1.00535556 L41.6342042,1.00535556 C43.1206862,1.00535556 44.3691698,1.5318 45.3816718,2.58366667 C46.3941738,3.63655556 46.9014333,4.9174 46.9014333,6.42722222 L46.9014333,8.55446667 C46.9014333,10.6592222 46.0250745,12.2722889 44.2723569,13.3936667 L47.6779538,23.8990444 L44.2814331,23.8990444 L41.2298084,14.0775333 L39.2037959,14.0775333 L39.2037959,23.8990444 L35.9968672,23.8990444 Z" id="Fill-4" fill="#222222"></path>
                        <path d="M60.8307988,18.2418622 L60.8307988,6.31866222 C60.8307988,5.67772889 60.6038935,5.14515111 60.1500828,4.72092889 C59.6962721,4.29772889 59.1486739,4.08510667 58.5072882,4.08510667 L56.8473496,4.08510667 L56.8473496,20.85364 L58.4074498,20.85364 C60.0230158,20.85364 60.8307988,19.9827067 60.8307988,18.2418622 Z M58.7372189,1.00515111 C60.1773114,1.00515111 61.4217611,1.52648444 62.4675426,2.56710667 C63.5143325,3.60875111 64.0377275,4.86097333 64.0377275,6.32581778 L64.0377275,18.2357289 C64.0377275,19.8835511 63.5365188,21.2390178 62.53511,22.3031511 C61.5337011,23.3672844 60.2337856,23.8998622 58.6363721,23.8998622 L53.6394124,23.8998622 L53.6394124,1.00515111 L58.7372189,1.00515111 Z" id="Fill-6" fill="#222222"></path>
                        <mask id="mask-2" fill="white">
                            <use xlink:href="#path-1"></use>
                        </mask>
                        <g id="Clip-9"></g>
                        <polygon id="Fill-8" fill="#D72727" mask="url(#mask-2)" points="71.0133017 23.8995556 74.2202304 23.8995556 74.2202304 1.00586667 71.0133017 1.00586667"></polygon>
                        <path d="M91.6280042,18.1156178 C91.6280042,18.8465067 91.588674,19.4669956 91.5100134,19.9811733 C91.4303445,20.4943289 91.2064645,21.0585956 90.8353483,21.6749956 C90.4632235,22.2903733 89.8773035,22.8444178 89.0796052,23.3340622 C88.27989,23.8247289 87.4640392,24.0700622 86.6310445,24.0700622 C85.6407288,24.0700622 84.7351244,23.8533511 83.9142313,23.4199289 C83.0923298,22.9875289 82.4902743,22.4385956 82.1080649,21.7772178 C81.724847,21.11584 81.4838231,20.5055733 81.3819678,19.9464178 C81.2801125,19.3872622 81.2296891,18.7780178 81.2296891,18.1156178 L81.2296891,6.34370667 C81.2296891,5.70584 81.2922142,5.13544 81.4162557,4.63250667 C81.5392889,4.13161778 81.804516,3.58370667 82.2089117,2.98979556 C82.6143159,2.39690667 83.1820835,1.88988444 83.9142313,1.46770667 C84.6453708,1.04552889 85.4158404,0.833928889 86.2266488,0.833928889 C87.7796898,0.833928889 89.0675036,1.35321778 90.0921072,2.39077333 C91.1157024,3.42935111 91.6280042,4.74699556 91.6280042,6.34370667 L91.6280042,7.57548444 L88.454355,7.57548444 L88.454355,6.34370667 C88.454355,5.70584 88.27989,5.17530667 87.93096,4.75210667 C87.58203,4.33095111 87.0707367,4.11935111 86.395063,4.11935111 C85.7647704,4.11935111 85.2756633,4.32992889 84.9267334,4.75210667 C84.5778034,5.17326222 84.4033384,5.70175111 84.4033384,6.33961778 L84.4033384,18.0869956 C84.4033384,18.38344 84.4083807,18.6788622 84.4204824,18.9753067 C84.4315755,19.2707289 84.5828457,19.6469067 84.87631,20.1028178 C85.1687657,20.5577067 85.6861099,20.78464 86.4293509,20.78464 C87.2169645,20.78464 87.7292664,20.5873511 87.9652479,20.1917511 C88.2012294,19.7971733 88.3414065,19.5027733 88.3867876,19.3105956 C88.4321687,19.11944 88.454355,18.8536622 88.454355,18.5153067 L88.454355,17.36224 L91.6280042,17.36224 L91.6280042,18.1156178 Z" id="Fill-10" fill="#222222" mask="url(#mask-2)"></path>
                        <path d="M24.3888946,42.4847822 C24.3888946,42.91616 24.3656998,43.2831378 24.3193103,43.5857156 C24.2719123,43.8882933 24.1398029,44.22256 23.9209654,44.5854489 C23.7021278,44.94936 23.3562232,45.2754489 22.8842601,45.56576 C22.412297,45.8550489 21.9312577,46.0002044 21.4391252,46.0002044 C20.8542137,46.0002044 20.3197256,45.8724267 19.8346524,45.6158489 C19.3495792,45.3602933 18.9945984,45.0372711 18.7687016,44.64576 C18.5417962,44.2562933 18.3996022,43.8954489 18.3401026,43.5652711 C18.280603,43.2361156 18.250349,42.8752711 18.250349,42.4847822 L18.250349,35.5357156 C18.250349,35.1585156 18.2876623,34.8222044 18.360272,34.52576 C18.4328817,34.2293156 18.5891942,33.9062933 18.8282012,33.5556711 C19.0682166,33.2060711 19.403028,32.90656 19.8346524,32.6571378 C20.2662768,32.4077156 20.7210959,32.2830044 21.2001183,32.2830044 C22.1168158,32.2830044 22.8772008,32.5896711 23.4822817,33.2019822 C24.0863541,33.8153156 24.3888946,34.5932267 24.3888946,35.5357156 L24.3888946,36.2625156 L22.5151608,36.2625156 L22.5151608,35.5357156 C22.5151608,35.1585156 22.412297,34.8457156 22.2065695,34.5962933 C22.000842,34.3468711 21.6983016,34.22216 21.2999566,34.22216 C20.9278319,34.22216 20.6384015,34.3468711 20.432674,34.5952711 C20.2269465,34.8446933 20.1240828,35.1564711 20.1240828,35.5326489 L20.1240828,42.4674044 C20.1240828,42.6422044 20.1271082,42.8170044 20.1341675,42.9918044 C20.1402183,43.1666044 20.2309804,43.3884267 20.4034285,43.6572711 C20.5758765,43.9261156 20.8814424,44.0600267 21.320126,44.0600267 C21.7850298,44.0600267 22.0865618,43.9445156 22.2257304,43.7104267 C22.3659075,43.47736 22.4496103,43.3035822 22.4758305,43.1911378 C22.5020507,43.0776711 22.5151608,42.9202489 22.5151608,42.7198933 L22.5151608,42.0401156 L24.3888946,42.0401156 L24.3888946,42.4847822 Z" id="Fill-11" fill="#222222" mask="url(#mask-2)"></path>
                        <path d="M34.6286785,34.7475822 C34.3624429,34.3836711 34.0165383,34.2017156 33.5919732,34.2017156 C33.3660764,34.2017156 33.1432049,34.2661156 32.9243673,34.3938933 C32.7055297,34.5226933 32.5522426,34.66376 32.4655143,34.8181156 C32.3797945,34.9734933 32.3233203,35.1319378 32.2960916,35.2934489 C32.2698715,35.45496 32.2567614,35.5898933 32.2567614,35.6972267 L32.2567614,42.5655378 C32.2567614,42.7004711 32.2668461,42.8486933 32.286007,43.0102044 C32.3061763,43.1717156 32.413074,43.3904711 32.6056914,43.6664711 C32.7983088,43.9424711 33.1270694,44.0804711 33.5919732,44.0804711 C33.8309802,44.0804711 34.0467924,44.0232267 34.2394098,43.9087378 C34.4320272,43.7952711 34.5722043,43.6634044 34.6579241,43.5151822 C34.7446523,43.36696 34.8011265,43.2258933 34.8273467,43.09096 C34.8545753,42.9560267 34.8676854,42.7812267 34.8676854,42.5655378 L34.8676854,35.6972267 C34.8676854,35.4283822 34.8576007,35.2392711 34.8374314,35.1319378 C34.817262,35.0235822 34.7476777,34.8958044 34.6286785,34.7475822 M30.9407105,33.6773156 C31.2462763,33.2459378 31.6315111,32.90656 32.0974234,32.6571378 C32.5623272,32.4077156 33.0463919,32.2830044 33.552643,32.2830044 C34.0437669,32.2830044 34.5046369,32.3842044 34.9372697,32.5866044 C35.3688941,32.7879822 35.7279088,33.0639822 36.0133052,33.4146044 C36.2987017,33.7652267 36.495353,34.1219822 36.6012422,34.4848711 C36.7081398,34.8487822 36.7605801,35.2464267 36.7605801,35.6767822 L36.7605801,42.5450933 C36.7605801,42.9488711 36.7242753,43.30256 36.6506571,43.60616 C36.5780474,43.9087378 36.4217348,44.2491378 36.1827279,44.6263378 C35.9437209,45.0035378 35.5907571,45.32656 35.1268617,45.5954044 C34.6619579,45.8652711 34.1557069,46.0002044 33.6121426,46.0002044 C32.9868923,46.0002044 32.413074,45.8376711 31.887662,45.5146489 C31.3632586,45.1916267 30.9981931,44.8246489 30.7914572,44.4137156 C30.5857297,44.0038044 30.4626965,43.6736267 30.4233663,43.4242044 C30.3830276,43.1747822 30.3628582,42.8824267 30.3628582,42.5450933 L30.3628582,35.6767822 C30.3628582,35.2730044 30.4062223,34.9162489 30.4929506,34.6065156 C30.5796789,34.2967822 30.7289321,33.9870489 30.9407105,33.6773156" id="Fill-12" fill="#222222" mask="url(#mask-2)"></path>
                        <path d="M47.3983056,42.5592 L47.3983056,35.5212 C47.3983056,35.1419556 47.2641793,34.8281333 46.9959268,34.5776889 C46.7286827,34.3272444 46.4059729,34.2025333 46.0267889,34.2025333 L45.0465578,34.2025333 L45.0465578,44.1007111 L45.9682977,44.1007111 C46.9213001,44.1007111 47.3983056,43.5865333 47.3983056,42.5592 Z M46.1619236,32.384 C47.0130707,32.384 47.7472356,32.6916889 48.3644181,33.3060444 C48.982609,33.9204 49.2912003,34.6604889 49.2912003,35.5242667 L49.2912003,42.5551111 C49.2912003,43.5282667 48.9957191,44.3286667 48.4047568,44.9563111 C47.812786,45.5849778 47.0463502,45.8988 46.102424,45.8988 L43.1526547,45.8988 L43.1526547,32.384 L46.1619236,32.384 Z" id="Fill-13" fill="#222222" mask="url(#mask-2)"></path>
                        <polygon id="Fill-14" fill="#222222" mask="url(#mask-2)" points="61.3642784 43.9798844 61.3642784 45.8985956 55.6835774 45.8985956 55.6835774 32.3848178 61.3642784 32.3848178 61.3642784 34.1624622 57.5774805 34.1624622 57.5774805 38.1613956 60.9054254 38.1613956 60.9054254 39.9799289 57.5774805 39.9799289 57.5774805 43.9798844"></polygon>
                        <path d="M71.7821578,37.9782133 C71.9021655,37.8289689 71.9848599,37.6603022 72.0312494,37.4701689 C72.077639,37.2810578 72.1018422,37.0715022 72.1018422,36.8415022 L72.1018422,35.5831467 C72.1018422,35.1630133 71.9888938,34.82568 71.7629969,34.56808 C71.5360916,34.31048 71.2174156,34.18168 70.8059606,34.18168 L69.4505794,34.18168 L69.4505794,38.40448 L70.7857913,38.40448 C71.1851447,38.40448 71.5169307,38.2623911 71.7821578,37.9782133 Z M67.5576847,45.8983911 L67.5576847,32.3846133 L70.8856296,32.3846133 C71.7629969,32.3846133 72.5001871,32.6953689 73.0982087,33.3158578 C73.6962304,33.9373689 73.9947369,34.6938133 73.9947369,35.5851911 L73.9947369,36.84048 C73.9947369,38.0835022 73.4773928,39.0362133 72.4427044,39.6965689 L74.4535899,45.8983911 L72.4487553,45.8983911 L70.6466227,40.1013689 L69.4505794,40.1013689 L69.4505794,45.8983911 L67.5576847,45.8983911 Z" id="Fill-15" fill="#222222" mask="url(#mask-2)"></path>
                    </g>
                </g>
                <g id="Page-1" transform="translate(4.697674, 31.846154)">
                    <mask id="mask-4" fill="white">
                        <use xlink:href="#path-3"></use>
                    </mask>
                    <g id="Clip-2"></g>
                    <path d="M0,6.85461333 C0.195198889,6.65093275 0.383246095,6.44051223 0.586578271,6.24478476 C2.6231253,4.28360088 4.661916,2.32457377 6.70084693,0.365681465 C7.20623256,-0.119997656 7.41657619,-0.12053685 7.91340784,0.356110769 C8.297916,0.72491956 8.68354599,1.09251516 9.0653898,1.46375033 C9.44765429,1.83525509 9.44765429,2.07694886 9.0596404,2.4506104 C7.55428115,3.90009905 6.04681847,5.34743092 4.54061784,6.79624557 C4.47358834,6.86067927 4.412168,6.93063971 4.33153627,7.01529319 C4.44708504,7.13310711 4.54720861,7.24054154 4.65308157,7.34231443 C6.09014925,8.724943 7.52805831,10.106628 8.96554669,11.4888522 C9.48229087,11.9855848 9.47976675,12.1685064 8.95138355,12.6768316 C8.57739257,13.0366089 8.20522457,13.3984082 7.82800833,13.7552199 C7.45429781,14.1086617 7.18870392,14.1147276 6.82915654,13.7696434 C4.64130233,11.6700214 2.45555154,9.56824264 0.270221451,7.46619429 C0.174865672,7.37453128 0.0898868448,7.27289319 0,7.17597304 C0,7.06880821 0,6.96177817 0,6.85461333" id="Fill-1" fill="#222222" mask="url(#mask-4)"></path>
                </g>
                <g id="Page-1" transform="translate(86.906977, 31.846154)">
                    <mask id="mask-6" fill="white">
                        <use xlink:href="#path-5"></use>
                    </mask>
                    <g id="Clip-2"></g>
                    <path d="M5.03301826,7.06253787 C3.44997209,5.52861479 1.90254412,4.02994024 0.356237973,2.53044911 C-0.121802985,2.06704675 -0.119138632,1.85963846 0.366474696,1.38766213 C0.760097744,1.0051 1.15091621,0.619952071 1.5495875,0.242425444 C1.89006373,-0.0797106509 2.18748962,-0.0829769231 2.52740493,0.245963905 C4.71624075,2.36482189 6.90241222,4.48599349 9.08535842,6.61056746 C9.41012898,6.92657929 9.41545769,7.21441953 9.09335148,7.52757337 C6.88951114,9.66970355 4.68076279,11.8072065 2.47005123,13.942668 C2.18426435,14.218668 1.88571663,14.2188041 1.58899188,13.9418515 C1.14741048,13.5298929 0.718309476,13.1051414 0.287665949,12.6821592 C-0.0931962513,12.308171 -0.0940376258,12.0553071 0.287665949,11.6841769 C1.7534806,10.2588574 3.22167914,8.83598757 4.68833516,7.41162071 C4.7950495,7.30805266 4.8972765,7.20026568 5.03301826,7.06253787" id="Fill-1" fill="#222222" mask="url(#mask-6)"></path>
                </g>
            </g>
        </g>
    </g>
</svg>